<mxfile host="app.diagrams.net" modified="2023-01-18T11:44:04.541Z" agent="5.0 (Macintosh; Intel Mac OS X 10_15_7) AppleWebKit/537.36 (KHTML, like Gecko) Chrome/108.0.0.0 Safari/537.36" version="20.8.5" etag="LGtsxLSiAOt4KJPQXGsb" type="github">
  <diagram id="_GWmjwF9HjOhCsVazb7B" name="Page-1">
    <mxGraphModel dx="1768" dy="580" grid="1" gridSize="10" guides="1" tooltips="1" connect="1" arrows="1" fold="1" page="1" pageScale="1" pageWidth="850" pageHeight="1100" math="0" shadow="0">
      <root>
        <mxCell id="0" />
        <mxCell id="1" parent="0" />
        <mxCell id="C9u8u517hZ_SCM8-FOsi-1" value="" style="endArrow=none;html=1;rounded=0;strokeWidth=3;fillColor=#dae8fc;strokeColor=#6c8ebf;" edge="1" parent="1">
          <mxGeometry width="50" height="50" relative="1" as="geometry">
            <mxPoint x="-30" y="380" as="sourcePoint" />
            <mxPoint x="610" y="380" as="targetPoint" />
          </mxGeometry>
        </mxCell>
        <mxCell id="C9u8u517hZ_SCM8-FOsi-2" value="" style="ellipse;whiteSpace=wrap;html=1;aspect=fixed;fillColor=#d5e8d4;strokeColor=none;" vertex="1" parent="1">
          <mxGeometry x="50" y="380" width="15" height="15" as="geometry" />
        </mxCell>
        <mxCell id="C9u8u517hZ_SCM8-FOsi-4" value="" style="ellipse;whiteSpace=wrap;html=1;aspect=fixed;fillColor=#d5e8d4;strokeColor=none;" vertex="1" parent="1">
          <mxGeometry x="312.5" y="380" width="15" height="15" as="geometry" />
        </mxCell>
        <mxCell id="C9u8u517hZ_SCM8-FOsi-6" value="" style="ellipse;whiteSpace=wrap;html=1;aspect=fixed;fillColor=#d5e8d4;strokeColor=none;" vertex="1" parent="1">
          <mxGeometry x="556.25" y="380" width="15" height="15" as="geometry" />
        </mxCell>
        <mxCell id="C9u8u517hZ_SCM8-FOsi-9" value="&lt;font style=&quot;font-size: 10px;&quot;&gt;2023/3&lt;/font&gt;" style="text;html=1;strokeColor=none;fillColor=none;align=center;verticalAlign=middle;whiteSpace=wrap;rounded=0;" vertex="1" parent="1">
          <mxGeometry x="27.5" y="390" width="60" height="30" as="geometry" />
        </mxCell>
        <mxCell id="C9u8u517hZ_SCM8-FOsi-10" value="&lt;font style=&quot;font-size: 10px;&quot;&gt;2023/5 - 6&lt;br&gt;&lt;/font&gt;" style="text;html=1;strokeColor=none;fillColor=none;align=center;verticalAlign=middle;whiteSpace=wrap;rounded=0;" vertex="1" parent="1">
          <mxGeometry x="290" y="390" width="60" height="30" as="geometry" />
        </mxCell>
        <mxCell id="C9u8u517hZ_SCM8-FOsi-11" value="&lt;font style=&quot;font-size: 10px;&quot;&gt;2023/10 - 12&lt;br&gt;&lt;/font&gt;" style="text;html=1;strokeColor=none;fillColor=none;align=center;verticalAlign=middle;whiteSpace=wrap;rounded=0;" vertex="1" parent="1">
          <mxGeometry x="533.75" y="390" width="60" height="30" as="geometry" />
        </mxCell>
        <mxCell id="C9u8u517hZ_SCM8-FOsi-15" value="&lt;font style=&quot;font-size: 11px;&quot;&gt;Shanghai Upgrade&lt;br&gt;Beacon Chain Withdrawals will launch&lt;br&gt;&lt;/font&gt;" style="text;html=1;strokeColor=none;fillColor=none;align=center;verticalAlign=middle;whiteSpace=wrap;rounded=0;fontSize=10;" vertex="1" parent="1">
          <mxGeometry x="-16.25" y="460" width="147.5" height="30" as="geometry" />
        </mxCell>
        <mxCell id="C9u8u517hZ_SCM8-FOsi-16" value="NOW!" style="text;html=1;strokeColor=none;fillColor=none;align=center;verticalAlign=middle;whiteSpace=wrap;rounded=0;fontSize=11;" vertex="1" parent="1">
          <mxGeometry x="-60" y="372.5" width="60" height="30" as="geometry" />
        </mxCell>
        <mxCell id="C9u8u517hZ_SCM8-FOsi-17" value="&lt;font style=&quot;font-size: 11px;&quot;&gt;Cancun Upgrade&lt;br&gt;EIP-4844 will deploy on mainnet&lt;br&gt;&lt;/font&gt;" style="text;html=1;strokeColor=none;fillColor=none;align=center;verticalAlign=middle;whiteSpace=wrap;rounded=0;fontSize=10;" vertex="1" parent="1">
          <mxGeometry x="255" y="460" width="130" height="30" as="geometry" />
        </mxCell>
        <mxCell id="C9u8u517hZ_SCM8-FOsi-19" value="" style="endArrow=classic;html=1;rounded=0;strokeWidth=1;fontSize=11;" edge="1" parent="1">
          <mxGeometry width="50" height="50" relative="1" as="geometry">
            <mxPoint x="57.210000000000036" y="420" as="sourcePoint" />
            <mxPoint x="57.210000000000036" y="450" as="targetPoint" />
          </mxGeometry>
        </mxCell>
        <mxCell id="C9u8u517hZ_SCM8-FOsi-20" value="" style="endArrow=classic;html=1;rounded=0;strokeWidth=1;fontSize=11;" edge="1" parent="1">
          <mxGeometry width="50" height="50" relative="1" as="geometry">
            <mxPoint x="319.7100000000005" y="420" as="sourcePoint" />
            <mxPoint x="319.7100000000005" y="450" as="targetPoint" />
          </mxGeometry>
        </mxCell>
        <mxCell id="C9u8u517hZ_SCM8-FOsi-26" value="" style="endArrow=classic;html=1;rounded=0;strokeWidth=1;fontSize=11;" edge="1" parent="1">
          <mxGeometry width="50" height="50" relative="1" as="geometry">
            <mxPoint x="563.4100000000005" y="420" as="sourcePoint" />
            <mxPoint x="563.4100000000005" y="450" as="targetPoint" />
          </mxGeometry>
        </mxCell>
        <mxCell id="C9u8u517hZ_SCM8-FOsi-27" value="&lt;font style=&quot;font-size: 11px;&quot;&gt;Prague Upgrade&lt;br&gt;EOF will launch on mainnet&lt;br&gt;&lt;/font&gt;" style="text;html=1;strokeColor=none;fillColor=none;align=center;verticalAlign=middle;whiteSpace=wrap;rounded=0;fontSize=10;" vertex="1" parent="1">
          <mxGeometry x="501.25" y="450" width="125" height="50" as="geometry" />
        </mxCell>
      </root>
    </mxGraphModel>
  </diagram>
</mxfile>
